<?xml version="1.0" encoding="UTF-8"?>
<svg width="37px" height="46px" viewBox="0 0 37 46" version="1.1" xmlns="http://www.w3.org/2000/svg" xmlns:xlink="http://www.w3.org/1999/xlink">
    <!-- Generator: Sketch 59 (86127) - https://sketch.com -->
    <title>Group 9</title>
    <desc>Created with Sketch.</desc>
    <defs>
        <polygon id="path-1" points="0 0 15.210095 0 15.210095 17.3824939 0 17.3824939"></polygon>
    </defs>
    <g id="Snugr" stroke="none" stroke-width="1" fill="none" fill-rule="evenodd">
        <g id="Group" transform="translate(-351.000000, -421.000000)">
            <g id="Group-9" transform="translate(351.000000, 421.000000)">
                <g id="Group-3" transform="translate(10.500000, 9.000000)">
                    <mask id="mask-2" fill="white">
                        <use xlink:href="#path-1"></use>
                    </mask>
                    <g id="Clip-2"></g>
                    <path d="M10.3213186,14.666649 C10.3213186,14.9660771 10.5642709,15.210095 10.8647646,15.210095 C11.1641927,15.210095 11.4082106,14.9660771 11.4082106,14.666649 L11.4082106,7.0616015 C11.4082106,6.7621734 11.1641927,6.51815548 10.8647646,6.51815548 C10.5642709,6.51815548 10.3213186,6.7621734 10.3213186,7.0616015 L10.3213186,14.666649 Z M7.06170806,14.666649 C7.06170806,14.9660771 7.3046604,15.210095 7.60515408,15.210095 C7.90458218,15.210095 8.1486001,14.9660771 8.1486001,14.666649 L8.1486001,7.0616015 C8.1486001,6.7621734 7.90458218,6.51815548 7.60515408,6.51815548 C7.3046604,6.51815548 7.06170806,6.7621734 7.06170806,7.0616015 L7.06170806,14.666649 Z M3.80209753,14.666649 C3.80209753,14.9660771 4.04504987,15.210095 4.34554355,15.210095 C4.64603723,15.210095 4.88792398,14.9660771 4.88792398,14.666649 L4.88792398,7.0616015 C4.88792398,6.7621734 4.64603723,6.51815548 4.34554355,6.51815548 C4.04504987,6.51815548 3.80209753,6.7621734 3.80209753,7.0616015 L3.80209753,14.666649 Z M1.08593301,4.34543699 L14.1233096,4.34543699 L14.1233096,15.7535411 C14.1233096,16.6528909 13.393387,17.3828135 12.4940371,17.3828135 L2.71520549,17.3828135 C1.81692119,17.3828135 1.08593301,16.6528909 1.08593301,15.7535411 L1.08593301,4.34543699 Z M15.2102016,1.62927248 L15.2102016,2.71616451 C15.2102016,3.01559261 14.9661837,3.25854495 14.6667556,3.25854495 L0.542486996,3.25854495 C0.243058896,3.25854495 -0.000959022386,3.01559261 -0.000959022386,2.71616451 L-0.000959022386,1.62927248 C-0.000959022386,1.32984437 0.243058896,1.08582646 0.542486996,1.08582646 L4.61620097,1.08582646 L4.9358751,0.451806102 C5.05841685,0.202460281 5.3823533,0 5.65940421,0 L5.66260096,0 L9.54344488,0 L9.54451046,0 C9.82262695,0 10.1497601,0.202460281 10.2733675,0.451806102 L10.5930416,1.08582646 L14.6667556,1.08582646 C14.9661837,1.08582646 15.2102016,1.32984437 15.2102016,1.62927248 L15.2102016,1.62927248 Z" id="Fill-1" fill="#E8C338" mask="url(#mask-2)"></path>
                </g>
                <ellipse id="Oval-Copy" stroke="#979797" cx="18.5" cy="18" rx="18" ry="17.5"></ellipse>
                <text id="Delete" font-family="SFProText-Medium, SF Pro Text" font-size="8" font-weight="400" letter-spacing="-0.0942117333" fill="#E8C339">
                    <tspan x="5.5" y="45">Delete</tspan>
                </text>
            </g>
        </g>
    </g>
</svg>