<?xml version="1.0" encoding="UTF-8"?>
<svg width="206px" height="104px" viewBox="0 0 206 104" version="1.1" xmlns="http://www.w3.org/2000/svg" xmlns:xlink="http://www.w3.org/1999/xlink">
    <!-- Generator: Sketch 59 (86127) - https://sketch.com -->
    <title>Group 18</title>
    <desc>Created with Sketch.</desc>
    <defs>
        <polygon id="path-1" points="0.307464706 0.295367442 37.9251176 0.295367442 37.9251176 47.7885767 0.307464706 47.7885767"></polygon>
    </defs>
    <g id="Snugr" stroke="none" stroke-width="1" fill="none" fill-rule="evenodd">
        <g id="login" transform="translate(-104.000000, -196.000000)">
            <g id="Group-18" transform="translate(104.000000, 196.000000)">
                <path d="M148.987447,77.9831854 C145.209939,77.9809624 141.433537,78.0209768 137.656029,77.9676243 C134.726443,77.9253868 133.041655,76.2747921 133.000751,73.5649267 C132.959847,70.8350542 134.591571,69.0721968 137.541056,69.046632 C145.194462,68.9788298 152.847867,68.9832758 160.501272,69.0710853 C163.4994,69.1066536 165.05595,70.8206046 164.998463,73.5971606 C164.940977,76.311472 163.262822,77.9353904 160.318864,77.9742934 C156.541357,78.0243114 152.764954,77.98652 148.987447,77.9831854" id="Fill-1" fill="#F5C41F"></path>
                <path d="M148.979024,82.0203736 C152.873562,82.0180916 156.76921,81.9667469 160.663748,82.0363475 C163.504209,82.0865513 164.94774,83.6314573 164.998779,86.4440078 C165.048709,89.1641378 163.566344,90.8927439 160.697034,90.9292558 C152.916835,91.0250993 145.133307,91.0216763 137.353107,90.9303967 C134.461607,90.8950259 132.974803,89.2052136 133.000323,86.4930706 C133.028062,83.5812536 134.525961,82.0762823 137.593881,82.0352065 C141.388559,81.9850028 145.184346,82.0226556 148.979024,82.0203736" id="Fill-3" fill="#F5C41F"></path>
                <path d="M148.930135,103.97418 C147.705864,103.976388 146.478192,104.029376 145.257321,103.965348 C142.607,103.827356 141.125405,102.449645 141.007512,99.7748084 C140.890753,97.140818 142.134295,95.3756249 144.78915,95.1658771 C147.623112,94.9406743 150.509218,94.9395703 153.338645,95.1945795 C156.029775,95.4374453 157.137287,97.3251753 156.986521,99.9116965 C156.840288,102.429774 155.407437,103.782095 152.907883,103.954309 C151.588391,104.045935 150.256429,103.970868 148.930135,103.97418" id="Fill-5" fill="#F5C41F"></path>
                <path d="M7.68257757,46.3053943 C5.56936639,45.1763907 3.83012549,43.6028282 2.46150589,41.5869077 L0.136192163,38.1514797 L9.3927939,31.8759365 L11.7181076,35.3113645 C12.4481869,36.2885138 13.3747402,36.7770884 14.4988837,36.7770884 C15.412041,36.7770884 16.1945877,36.4568739 16.8476403,35.8153446 C17.5006929,35.1738153 17.8277774,34.3793313 17.8277774,33.4329931 C17.8277774,32.5779875 17.5096235,31.798909 16.8699669,31.096858 C16.7181461,30.9141927 16.4223189,30.730427 15.9813689,30.5477618 C15.5404188,30.3639961 14.8025252,30.1956359 13.7699207,30.0437816 C12.431442,29.9513486 10.9199323,29.6157286 9.23315883,29.0358213 C7.54526907,28.4548136 5.89645084,27.4171427 4.28558781,25.9206078 C2.9169682,24.5462165 1.86092078,22.9583489 1.1163292,21.1570051 C0.371737624,19.3545608 0,17.4904945 0,15.5670069 C0,12.8798464 0.653052583,10.4358728 1.96027408,8.23728695 C3.26637924,6.03870107 5.0156671,4.2835737 7.20367234,2.96970406 C9.3927939,1.65693482 11.8241589,1 14.4988837,1 C16.9001078,1 19.1573254,1.56560217 21.2705366,2.69460573 C23.3837478,3.82581008 25.124105,5.39717176 26.4916083,7.41309234 L28.8180383,10.8485203 L19.5614366,17.1240635 L17.2361229,13.6886355 C16.5060436,12.7125866 15.5940026,12.2229116 14.4988837,12.2229116 C13.5567018,12.2229116 12.7674571,12.5519292 12.1289168,13.2077636 C11.4903765,13.8657988 11.1711063,14.6503793 11.1711063,15.5670069 C11.1711063,16.4528236 11.4903765,17.2473075 12.1289168,17.9482581 C12.2193394,18.0406911 12.3566479,18.1485297 12.5386096,18.269573 C12.7216876,18.392817 13.0097005,18.5149607 13.4048811,18.6360039 C13.8000616,18.759248 14.3470629,18.8505806 15.0470013,18.9111023 C16.5361845,19.0640569 18.1392332,19.4381907 19.8572638,20.0335035 C21.5741782,20.6288163 23.238625,21.7061013 24.8506044,23.2631579 C26.1567095,24.6375492 27.1759181,26.2100112 27.9059974,27.9816445 C28.6349604,29.7532778 29,31.5700272 29,33.4329931 C29,36.1201536 28.3458311,38.5641272 27.0386096,40.7627131 C25.7313881,42.9612989 23.9765186,44.7186271 21.7728847,46.0302959 C19.5681346,47.3441656 17.1445839,48 14.4988837,48 C12.0675187,48 9.79578874,47.4354982 7.68257757,46.3053943" id="Fill-7" fill="#F9FCFD"></path>
                <path d="M71,48 L59.7697942,48 L59.7697942,20.2416478 C59.7697942,18.0942264 59.0055521,16.2531056 57.4781902,14.7171796 C55.9485839,13.1845709 54.1159741,12.416055 51.9769942,12.416055 C50.1432622,12.416055 48.5317327,12.984425 47.1412835,14.1189535 C45.7497121,15.2556936 44.8407017,16.6965227 44.4131301,18.4458639 L44.4591418,48 L33,48 L33,1 L44.4131301,1 L44.4131301,5.05046584 C45.0853489,4.13045831 46.0785269,3.37078863 47.3926641,2.77256258 C48.7068013,2.17433653 50.0052273,1.72870789 51.2890641,1.4378882 C52.572901,1.14596273 53.4594666,1 53.9476389,1 C59.0818641,1 63.2375004,2.88756352 66.4167922,6.66158479 C69.4715159,10.3150762 71,14.8410267 71,20.2416478 L71,48 Z" id="Fill-9" fill="#F9FCFD"></path>
                <path d="M84.466216,45.405794 C81.5926231,43.6781609 79.2953123,41.3673 77.5776341,38.4754164 C75.8588391,35.5835327 75,32.3796388 75,28.8593244 L75,1 L86.2218663,1 L86.2218663,28.8593244 C86.2218663,31.0334741 86.9824247,32.8845883 88.5035415,34.4126671 C90.0235415,35.9440535 91.8640705,36.7080929 94.0228949,36.7080929 C96.151565,36.7080929 97.9764585,35.9440535 99.4975753,34.4126671 C101.017575,32.8845883 101.778134,31.0334741 101.778134,28.8593244 L101.778134,1 L113,1 L113,28.8593244 C113,32.3796388 112.148979,35.5835327 110.445819,38.4754164 C108.74266,41.3673 106.454284,43.6781609 103.580691,45.405794 C100.705981,47.1345297 97.5196767,48 94.0228949,48 C90.5249963,48 87.339809,47.1345297 84.466216,45.405794" id="Fill-11" fill="#F9FCFD"></path>
                <path d="M152.326752,23.9905656 L152.326752,23.3932855 C152.265294,21.2172429 151.695418,19.2653184 150.614888,17.5330958 C149.534357,15.8030812 148.113018,14.4153159 146.347519,13.3742159 C144.583137,12.3320118 142.6355,11.8109098 140.505727,11.8109098 C138.344666,11.8109098 136.375799,12.3474683 134.594655,13.4194811 C132.815747,14.492598 131.392173,15.9245245 130.327287,17.7163647 C129.2624,19.509309 128.730515,21.4932504 128.730515,23.6692929 C128.730515,25.8751443 129.2624,27.8745421 130.327287,29.6674863 C131.392173,31.4593265 132.815747,32.8923571 134.594655,33.96437 C136.375799,35.0374868 138.344666,35.5729412 140.505727,35.5729412 C142.6355,35.5729412 144.583137,35.0529432 146.347519,34.0096352 C148.113018,32.9696392 149.534357,31.5818738 150.614888,29.8507553 C151.695418,28.1196367 152.265294,26.1666081 152.326752,23.9905656 L152.326752,23.9905656 Z M163.919826,0.045265218 L163.919826,7.30757264 C163.949996,9.42178953 163.972344,13.0982085 163.989105,18.3379335 C164.003632,23.5776585 164.003632,28.6561951 163.989105,33.5735434 C163.972344,38.4919958 163.919826,41.5335976 163.828199,42.6961409 C163.280671,48.5187936 161.470475,53.3743163 158.397612,57.267125 C157.119301,58.8900487 155.689023,60.2998946 154.106778,61.4955588 C152.464193,62.7199277 150.714337,63.6848497 148.858327,64.3914287 L148.812514,64.3914287 C148.630377,64.4830632 148.447122,64.5581372 148.264985,64.6210669 L144.249033,66 L140.505727,54.9232699 L144.522797,53.5443368 C144.613307,53.51232 144.68929,53.4825112 144.750747,53.4527024 L144.796561,53.4527024 C145.617854,53.1446781 146.423502,52.7008581 147.214625,52.1190345 C147.975578,51.5361068 148.675073,50.8317358 149.314228,50.0037136 C150.500912,48.533146 151.337849,46.6805841 151.825037,44.4427159 C148.325325,46.4045767 144.551849,47.3849551 140.505727,47.3849551 C137.279779,47.3849551 134.244908,46.7644904 131.399995,45.523561 C128.555083,44.2826316 126.059918,42.5824259 123.914501,40.4218397 C121.769084,38.2623576 120.080685,35.749586 118.849305,32.8846289 C117.616807,30.0196718 117,26.9482612 117,23.6692929 C117,20.4223415 117.616807,17.3652833 118.849305,14.4992222 C120.080685,11.6353691 121.769084,9.12259748 123.914501,6.96201134 C126.059918,4.8014252 128.555083,3.10121945 131.399995,1.86029006 C134.244908,0.619360666 137.279779,0 140.505727,0 C144.735104,0 148.675073,1.07201285 152.326752,3.21714257 L152.326752,0.045265218 L163.919826,0.045265218 Z" id="Fill-13" fill="#F5C41F"></path>
                <g id="Group-17" transform="translate(168.000000, 0.000000)">
                    <mask id="mask-2" fill="white">
                        <use xlink:href="#path-1"></use>
                    </mask>
                    <g id="Clip-16"></g>
                    <path d="M26.1921706,16.2347163 C25.5528765,14.9029953 24.6174059,13.8347163 23.3846412,13.0287628 C22.1518765,12.2228093 20.7749353,11.8198326 19.2538176,11.8198326 C17.4275824,11.8198326 15.8215235,12.3936 14.4367588,13.5389023 C13.0519941,14.6853209 12.1467,16.1420651 11.7208765,17.9080186 L11.7208765,44.1182512 L11.7208765,47.7885767 L0.307464706,47.7885767 L0.307464706,19.7197395 L0.307464706,19.1627163 C0.307464706,12.8423442 0.323111765,6.55322791 0.353288235,0.295367442 L11.7208765,0.295367442 L11.7208765,1.08569302 L11.7208765,2.3403907 L11.7208765,3.59508837 L11.7208765,4.38429767 C12.3892294,3.45555349 13.3794647,2.68085581 14.6882294,2.06132093 C15.9958765,1.44178605 17.2901118,0.99304186 18.5687,0.713972093 C19.8461706,0.434902326 20.7291118,0.295367442 21.2164059,0.295367442 C24.3201118,0.295367442 27.0438176,1.00085581 29.3875235,2.4096 C31.7312294,3.81946047 33.6334647,5.71713488 35.0942294,8.10262326 C36.5549941,10.4892279 37.4982882,13.1984372 37.9252294,16.2347163 L26.1921706,16.2347163 Z" id="Fill-15" fill="#F9FCFD" mask="url(#mask-2)"></path>
                </g>
            </g>
        </g>
    </g>
</svg>