<?xml version="1.0" encoding="UTF-8"?>
<svg width="207px" height="106px" viewBox="0 0 207 106" version="1.1" xmlns="http://www.w3.org/2000/svg" xmlns:xlink="http://www.w3.org/1999/xlink">
    <!-- Generator: Sketch 59 (86127) - https://sketch.com -->
    <title>Group 18</title>
    <desc>Created with Sketch.</desc>
    <defs>
        <polygon id="path-1" points="0.299373529 0.295702326 36.9270882 0.295702326 36.9270882 47.7889116 0.299373529 47.7889116"></polygon>
    </defs>
    <g id="Snugr" stroke="none" stroke-width="1" fill="none" fill-rule="evenodd">
        <g id="login-copy" transform="translate(-104.000000, -196.000000)">
            <g id="Group-18" transform="translate(104.000000, 196.000000)">
                <path d="M149.487024,78.9839126 C145.591477,78.9816894 141.697069,79.021707 137.802661,78.9672385 C134.780391,78.9261093 133.042956,77.2753809 133.000774,74.5641846 C132.958592,71.8352027 134.642445,70.0722026 137.682956,70.0466358 C145.575516,69.9788281 153.469216,69.9832745 161.360636,70.071091 C164.452449,70.1055507 166.058779,71.8196403 165.998356,74.5975327 C165.940214,77.3120638 164.209619,78.9350021 161.172528,78.9739081 C157.27698,79.0239302 153.382572,78.9872474 149.487024,78.9839126" id="Fill-1" fill="#F5C41F"></path>
                <path d="M149.477811,83.0206217 C153.495333,83.0183397 157.511711,82.9669956 161.528089,83.0354544 C164.457413,83.0867986 165.946105,84.6316859 165.998741,87.4442024 C166.050233,90.1631585 164.521492,91.8928846 161.563561,91.929396 C153.538815,92.0252384 145.512925,92.0218154 137.488179,91.929396 C134.506218,91.8951666 132.9729,90.2042338 133.000362,87.4921236 C133.028969,84.5803418 134.572586,83.0753888 137.736485,83.0354544 C141.649878,82.9841103 145.564417,83.0229037 149.477811,83.0206217" id="Fill-3" fill="#F5C41F"></path>
                <path d="M148.930132,105.974181 C147.70586,105.976389 146.478187,106.029375 145.257316,105.96535 C142.606995,105.827364 141.125399,104.449714 141.007506,101.774997 C140.890747,99.1411244 142.135423,97.3760101 144.790279,97.1662717 C147.624242,96.9410789 150.509216,96.9388711 153.339777,97.1949728 C156.029775,97.4378277 157.137287,99.3254734 156.98652,101.911879 C156.840288,104.429844 155.40857,105.782105 152.909015,105.954311 C151.588389,106.045933 150.256426,105.970869 148.930132,105.974181" id="Fill-5" fill="#F5C41F"></path>
                <path d="M7.68257757,46.2693388 C5.56936639,45.1163139 3.83012549,43.5092714 2.46150589,41.4504589 L0.136192163,37.9419367 L9.3927939,31.5328713 L11.7181076,35.0413935 C12.4481869,36.0393332 13.3747402,36.5383031 14.4988837,36.5383031 C15.412041,36.5383031 16.1945877,36.2112755 16.8476403,35.5560966 C17.5006929,34.9009178 17.8277774,34.0895299 17.8277774,33.1230568 C17.8277774,32.2498595 17.5096235,31.4542049 16.8699669,30.7372167 C16.7181461,30.5506649 16.4223189,30.3629893 15.9813689,30.1764375 C15.5404188,29.9887619 14.8025252,29.8168196 13.7699207,29.6617344 C12.431442,29.5673347 10.9199323,29.2245739 9.23315883,28.6323282 C7.54526907,28.0389586 5.89645084,26.9792096 4.28558781,25.4508335 C2.9169682,24.0471999 1.86092078,22.4255479 1.1163292,20.5858775 C0.371737624,18.7450833 0,16.8413561 0,14.8769432 C0,12.1326091 0.653052583,9.63663607 1.96027408,7.39127177 C3.26637924,5.14590747 5.0156671,3.35343697 7.20367234,2.01161266 C9.3927939,0.670912156 11.8241589,0 14.4988837,0 C16.9001078,0 19.1573254,0.577636261 21.2705366,1.73066117 C23.3837478,2.8859337 25.124105,4.4907286 26.4916083,6.54954111 L28.8180383,10.0580633 L19.5614366,16.4671287 L17.2361229,12.9586065 C16.5060436,11.9617906 15.5940026,11.4616969 14.4988837,11.4616969 C13.5567018,11.4616969 12.7674571,11.7977149 12.1289168,12.4675033 C11.4903765,13.1395392 11.1711063,13.9408129 11.1711063,14.8769432 C11.1711063,15.781607 11.4903765,16.5929949 12.1289168,17.3088593 C12.2193394,17.403259 12.3566479,17.513392 12.5386096,17.6370107 C12.7216876,17.7628769 13.0097005,17.8876194 13.4048811,18.0112381 C13.8000616,18.1371043 14.3470629,18.2303802 15.0470013,18.2921895 C16.5361845,18.4483986 18.1392332,18.8304926 19.8572638,19.4384716 C21.5741782,20.0464506 23.238625,21.1466567 24.8506044,22.7368421 C26.1567095,24.1404757 27.1759181,25.7463945 27.9059974,27.555722 C28.6349604,29.3650496 29,31.2204533 29,33.1230568 C29,35.8673909 28.3458311,38.3633639 27.0386096,40.6087282 C25.7313881,42.8540925 23.9765186,44.6488106 21.7728847,45.9883873 C19.5681346,47.3302117 17.1445839,48 14.4988837,48 C12.0675187,48 9.79578874,47.4234875 7.68257757,46.2693388" id="Fill-7" fill="#000000"></path>
                <path d="M71,49 L60.0653259,49 L60.0653259,20.6510446 C60.0653259,18.4579334 59.3211955,16.5776398 57.8340273,15.0090344 C56.3446738,13.4438171 54.5602906,12.6589497 52.4775996,12.6589497 C50.6921237,12.6589497 49.1230029,13.2394128 47.7691444,14.3980802 C46.4141933,15.5590062 45.5291043,17.0304912 45.1127846,18.8170525 L45.1575854,49 L34,49 L34,1 L45.1127846,1 L45.1127846,5.13664596 C45.7673134,4.19706381 46.7343552,3.42123094 48.0139098,2.81027668 C49.2934645,2.19932242 50.5577213,1.74421231 51.807773,1.44720497 C53.0578246,1.14906832 53.9210596,1 54.3963852,1 C59.3954992,1 63.4417767,2.92772445 66.5374029,6.78204404 C69.5117392,10.5132693 71,15.1355167 71,20.6510446 L71,49 Z" id="Fill-9" fill="#000000"></path>
                <path d="M85.2171051,45.3505982 C82.419133,43.5862069 80.1822777,41.2261787 78.5098016,38.2727657 C76.8362381,35.3193526 76,32.0472906 76,28.452076 L76,0 L86.926554,0 L86.926554,28.452076 C86.926554,30.6724842 87.6670977,32.5629838 89.1481852,34.1235749 C90.6281852,35.687544 92.4202792,36.4678395 94.5222924,36.4678395 C96.5949449,36.4678395 98.3718148,35.687544 99.8529023,34.1235749 C101.332902,32.5629838 102.073446,30.6724842 102.073446,28.452076 L102.073446,0 L113,0 L113,28.452076 C113,32.0472906 112.171374,35.3193526 110.513035,38.2727657 C108.854695,41.2261787 106.626539,43.5862069 103.828567,45.3505982 C101.029508,47.1161154 97.9270536,48 94.5222924,48 C91.1164438,48 88.0150771,47.1161154 85.2171051,45.3505982" id="Fill-11" fill="#000000"></path>
                <path d="M152.575119,24.7175524 L152.575119,24.1021729 C152.514969,21.8601897 151.957218,19.8491159 150.899677,18.0644017 C149.842137,16.2819625 148.451039,14.8521437 146.723104,13.7794952 C144.996261,12.7057092 143.090064,12.1688162 141.005605,12.1688162 C138.890524,12.1688162 136.963548,12.721634 135.220301,13.826132 C133.479242,14.9317676 132.085957,16.4070859 131.043727,18.2532243 C130.001498,20.1005002 129.48093,22.144561 129.48093,24.3865442 C129.48093,26.6592396 130.001498,28.7192252 131.043727,30.5665011 C132.085957,32.4126395 133.479242,33.8890952 135.220301,34.9935933 C136.963548,36.0992289 138.890524,36.6509092 141.005605,36.6509092 C143.090064,36.6509092 144.996261,36.1151536 146.723104,35.0402302 C148.451039,33.9687192 149.842137,32.5389003 150.899677,30.7553236 C151.957218,28.9717469 152.514969,26.9595356 152.575119,24.7175524 L152.575119,24.7175524 Z M163.921532,0.0466368913 L163.921532,7.52901424 C163.95106,9.70729831 163.972933,13.4951239 163.989337,18.8936284 C164.003554,24.292133 164.003554,29.5245647 163.989337,34.5909235 C163.972933,39.6584199 163.921532,42.7921915 163.831854,43.9899634 C163.295976,49.9890601 161.524295,54.9917198 158.516812,59.0024924 C157.265699,60.6745956 155.865852,62.1271641 154.317272,63.3590606 C152.709635,64.6205316 150.99701,65.6146936 149.180491,66.3426841 L149.135652,66.3426841 C148.95739,66.4370954 148.778035,66.5144444 148.599773,66.579281 L144.669266,68 L141.005605,56.5876114 L144.937205,55.1668925 C145.025789,55.1339054 145.100156,55.1031933 145.160306,55.0724812 L145.205145,55.0724812 C146.008963,54.7551229 146.79747,54.2978538 147.571761,53.6983992 C148.316523,53.097807 149.001135,52.3720915 149.626692,51.5189776 C150.788127,50.0038474 151.607256,48.0951473 152.084079,45.7894649 C148.658829,47.810776 144.96564,48.8208628 141.005605,48.8208628 C137.848294,48.8208628 134.877995,48.1815962 132.093612,46.9030628 C129.30923,45.6245295 126.867154,43.8728024 124.767384,41.6467439 C122.667614,39.421823 121.015138,36.8329068 119.809958,33.8811328 C118.603684,30.9293588 118,27.7648751 118,24.3865442 C118,21.0412004 118.603684,17.891504 119.809958,14.9385925 C121.015138,11.987956 122.667614,9.39903983 124.767384,7.17298138 C126.867154,4.94692294 129.30923,3.1951958 132.093612,1.91666248 C134.877995,0.638129171 137.848294,0 141.005605,0 C145.144995,0 149.001135,1.10449808 152.575119,3.31463174 L152.575119,0.0466368913 L163.921532,0.0466368913 Z" id="Fill-13" fill="#F5C41F"></path>
                <g id="Group-17" transform="translate(170.000000, 0.000000)">
                    <mask id="mask-2" fill="white">
                        <use xlink:href="#path-1"></use>
                    </mask>
                    <g id="Clip-16"></g>
                    <path d="M25.5029029,16.2350512 C24.8804324,14.9033302 23.9695794,13.8350512 22.7692559,13.0290977 C21.5689324,12.2231442 20.2282265,11.8201674 18.7471382,11.8201674 C16.9689618,11.8201674 15.4051676,12.3939349 14.0568441,13.5392372 C12.7085206,14.6856558 11.82705,16.1424 11.4124324,17.9083535 L11.4124324,44.118586 L11.4124324,47.7889116 L0.299373529,47.7889116 L0.299373529,19.7200744 L0.299373529,19.1630512 C0.299373529,12.8426791 0.314608824,6.55356279 0.343991176,0.295702326 L11.4124324,0.295702326 L11.4124324,1.08602791 L11.4124324,2.34072558 L11.4124324,3.59542326 L11.4124324,4.38463256 C12.0631971,3.45588837 13.0273735,2.6811907 14.3016971,2.06165581 C15.5749324,1.44212093 16.8351088,0.993376744 18.08005,0.714306977 C19.3239029,0.435237209 20.1836088,0.295702326 20.6580794,0.295702326 C23.6801088,0.295702326 26.3321382,1.0011907 28.6141676,2.40993488 C30.8961971,3.81979535 32.7483735,5.71746977 34.1706971,8.10295814 C35.5930206,10.4895628 36.5114912,13.1987721 36.9271971,16.2350512 L25.5029029,16.2350512 Z" id="Fill-15" fill="#000000" mask="url(#mask-2)"></path>
                </g>
            </g>
        </g>
    </g>
</svg>