<?xml version="1.0" encoding="UTF-8"?>
<svg width="216px" height="93px" viewBox="0 0 216 93" version="1.1" xmlns="http://www.w3.org/2000/svg" xmlns:xlink="http://www.w3.org/1999/xlink">
    <!-- Generator: Sketch 59 (86127) - https://sketch.com -->
    <title>Group 12</title>
    <desc>Created with Sketch.</desc>
    <defs>
        <path d="M70.0883176,31.4827765 C71.2797294,32.1719176 72.1119294,33.0720706 71.3986471,34.6202353 C70.5293412,36.5070471 68.2276588,37.8801882 66.5306235,38.9336824 C59.8893412,43.0571294 52.3324824,45.8606353 44.9770235,48.4064118 C36.8085882,51.2340588 28.4235529,53.6893059 19.9003765,55.1853882 C16.8420471,55.7223059 13.6943059,56.1982 10.5796471,56.0985059 C9.15665882,56.0529059 6.67525882,56.0059647 5.82495294,54.5785059 C5.43511765,53.9237882 5.59516471,53.3397059 5.75387059,52.6472118 C6.1712,50.825 7.33891765,49.2459882 7.85147059,47.4168471 C8.44561176,45.2966706 8.65125882,43.0747882 8.57503529,40.8781647 C8.42482353,36.5524235 7.60223529,31.9097176 6.47430588,27.7650353 C5.73710588,25.0567529 5.10250588,22.7476941 4.21710588,20.1013294 C3.49264706,17.9371176 2.73778824,16.5823059 1.58214118,11.9983882 C1.09171765,10.0530118 0.619176471,8.09869412 0.329929412,6.11174118 C0.180388235,5.08484706 0.0793529412,4.04968235 0.0561058824,3.01161176 C0.0429176471,2.41389412 -0.170776471,0.539376471 0.333729412,0.150658824 C0.838682353,0.550776471 1.20124706,1.52312941 1.55129412,2.08508235 C1.97287059,2.76148235 2.40808235,3.42961176 2.87078824,4.07874118 C4.26650588,6.03596471 5.26814118,6.83664706 7.46968235,7.90265882 C9.60684706,8.93737647 11.7911765,9.87441176 14.0132824,10.7110824 C18.4574941,12.3848706 23.0525882,13.6569765 27.7248,14.5079529 C36.5233647,16.1104353 45.5608824,16.4564588 54.4499765,17.4471412 C55.3626471,17.5488471 57.5188118,17.0349529 57.8009059,17.9089529 C57.8798118,18.1526 58.5968941,19.3965412 58.9022353,19.9325647 C61.5497176,24.5804118 64.0431882,27.9789529 68.5537882,30.6338118" id="path-1"></path>
        <path d="M4.84276471,4.69031765 C5.06070588,5.00862353 4.49249412,5.78203529 3.26576471,6.83195294 L0.175023529,1.46702353 C0.861705882,1.00543529 1.54168235,0.529317647 2.21361176,0.0371058824" id="path-3"></path>
        <path d="M0.116682353,1.87004706 C1.17397647,1.31435294 2.22456471,0.7296 3.26375294,0.113776471 L6.49375294,5.72011765 C5.58644706,6.32185882 4.55932941,6.95735294 3.42424706,7.61095294" id="path-5"></path>
        <path d="M0.1178,1.54458824 C1.15698824,1.11429412 2.19684706,0.659188235 3.2338,0.177929412 L6.61177647,6.04132941 C5.46507059,6.62541176 4.24348235,7.21128235 2.95707059,7.78865882" id="path-7"></path>
        <path d="M0.0491764706,0.906188235 C1.09328235,0.651811765 2.25250588,0.344682353 3.24497647,0.0735411765 L5.42595294,6.82412941 C4.23878824,7.16210588 2.80149412,7.54434118 1.44981176,7.86085882" id="path-9"></path>
        <path d="M0.0532,0.321882353 C0.0532,0.321882353 1.14022353,0.307576471 3.03910588,0.173682353 L3.65224706,6.14661176 C2.71007059,6.10302353 1.76498824,6.03931765 0.817670588,5.94901176" id="path-11"></path>
        <path d="M0.191117647,0.8094 C1.26785882,0.619623529 2.3864,0.4066 3.54070588,0.1672 L4.92636471,7.06442353 C3.60217647,7.3074 2.25854118,7.51841176 0.897470588,7.69030588" id="path-13"></path>
        <path d="M0.0867294118,1.25556471 C1.26204706,0.8816 2.52454118,0.452423529 3.75283529,0.00469411765 L6.64508235,6.34689412 C5.24310588,6.90437647 3.81050588,7.4328 2.25183529,7.95675294" id="path-15"></path>
        <path d="M0.0634823529,0.507188235 C1.15229412,0.388717647 2.34996471,0.241188235 3.63995294,0.0576705882 L4.32350588,6.71817647 C3.13052941,6.80311765 1.92771765,6.85542353 0.716858824,6.8742" id="path-17"></path>
    </defs>
    <g id="Snugr" stroke="none" stroke-width="1" fill="none" fill-rule="evenodd">
        <g id="No-Friends-Copy-2" transform="translate(-87.000000, -249.000000)">
            <g id="Group-12" transform="translate(87.500000, 249.223574)">
                <g id="Group-10">
                    <g id="Group-49" transform="translate(0.000000, 5.836532)">
                        <path d="M180.662059,70.6257941 L56.0314471,70.6257941 C53.6671765,70.6257941 51.7506353,68.7092529 51.7506353,66.3447588 L51.7506353,30.7559706 C51.7506353,28.3917 53.6671765,26.4749353 56.0314471,26.4749353 L180.662059,26.4749353 C183.026329,26.4749353 184.942871,28.3917 184.942871,30.7559706 L184.942871,66.3447588 C184.942871,68.7092529 183.026329,70.6257941 180.662059,70.6257941" id="Fill-1" fill="#E9E9E9"></path>
                        <path d="M47.0292471,79.3434412 C47.7429765,81.5530294 45.3518824,84.3033353 41.6884588,85.4869235 C38.0252588,86.6705118 34.4767294,85.8389824 33.7627765,83.6296176 C33.0490471,81.4200294 35.4401412,78.6695 39.1035647,77.4859118 C42.7672118,76.3025471 46.3155176,77.1340765 47.0292471,79.3434412" id="Fill-3" fill="#D7D7D7"></path>
                        <path d="M36.4017871,81.8487588 C38.4104224,81.5074294 40.40654,81.0878647 42.3841047,80.5757588 C43.9333871,80.1745235 45.4721635,79.7361824 47.0055753,79.2795118 C46.2437871,77.1188765 42.7310224,76.3139471 39.1035871,77.4859118 C36.1100812,78.4531235 33.9671047,80.4662294 33.6724929,82.3758412 C34.6117635,82.2242882 35.5523753,81.9931588 36.4017871,81.8487588" id="Fill-5" fill="#D7D7D7"></path>
                        <path d="M13.5847541,7.40452353 C13.4799188,5.6639 14.0389659,3.83118235 15.7896482,3.09420588 C18.1878953,2.08497059 19.5704247,3.4903 20.6000012,5.29440588 C18.15906,5.62187647 15.7918835,6.34588824 13.5847541,7.40452353 M70.0637071,60.4650412 C69.5569659,60.1719941 69.0310012,59.9115824 68.5269424,59.6147353 C61.5380718,55.4993353 57.4615659,47.0555118 54.5357894,39.8276882 C51.4327541,32.1619706 49.1163188,24.0927824 44.8232129,16.9653235 C40.5256365,9.83093529 32.6717071,5.20007647 24.0423541,5.0939 C23.7137659,4.35200588 23.3185659,3.64341765 22.8853659,3.05419412 C21.8557894,1.65311176 20.4102247,0.616829412 18.4138835,0.268347059 C14.6109776,-0.395535294 11.2137776,2.01925294 10.5883424,5.80248824 C10.4327659,6.7431 10.4680835,7.93004118 10.7398953,9.01438235 C7.56555412,11.0987941 4.86755412,13.9181706 2.97180118,17.2442882 C-0.766951765,23.8042059 -0.332634118,32.1405118 1.18423647,39.2661824 C2.47713059,45.3379118 4.81882471,50.7553706 6.44947176,56.7473 C7.57762471,60.8919824 8.39998941,65.5346882 8.55042471,69.8604294 C8.62642471,72.0570529 8.42077765,74.2791588 7.82663647,76.3991118 C7.31430706,78.2282529 6.14636588,79.8072647 5.72881294,81.6294765 C5.57033059,82.3217471 5.41050706,82.9062765 5.80034235,83.5605471 C6.65064824,84.9884529 9.13182471,85.0351706 10.5548129,85.0807706 C13.6694718,85.1804647 16.8174365,84.7045706 19.8755424,84.1676529 C28.3987188,82.6715706 36.7837541,80.2161 44.9524129,77.3886765 C52.3074247,74.8426765 59.8647306,72.0391706 66.5060129,67.9161706 C68.2030482,66.8624529 70.5047306,65.4893118 71.3738129,63.6025 C72.0873188,62.0541118 71.2551188,61.1541824 70.0637071,60.4650412" id="Fill-7" fill="#606060"></path>
                        <g id="Group-11" transform="translate(0.000000, 29.058824)">
                            <mask id="mask-2" fill="white">
                                <use xlink:href="#path-1"></use>
                            </mask>
                            <g id="Clip-10"></g>
                            <path d="M70.0883176,31.4827765 C69.5824706,31.1904 69.0574,30.9302118 68.5537882,30.6338118 C64.0431882,27.9789529 61.5497176,24.5804118 58.9022353,19.9325647 C58.5968941,19.3965412 57.8798118,18.1526 57.8009059,17.9089529 C57.5188118,17.0349529 55.3626471,17.5488471 54.4499765,17.4471412 C45.5608824,16.4564588 36.5233647,16.1104353 27.7248,14.5079529 C23.0525882,13.6569765 18.4574941,12.3848706 14.0132824,10.7110824 C11.7911765,9.87441176 9.60684706,8.93737647 7.46968235,7.90265882 C5.26814118,6.83664706 4.26650588,6.03596471 2.87078824,4.07874118 C2.40808235,3.42961176 1.97287059,2.76148235 1.55129412,2.08508235 C1.20124706,1.52312941 0.838682353,0.550776471 0.333729412,0.150658824 C-0.170776471,0.539376471 0.0429176471,2.41389412 0.0561058824,3.01161176 C0.0793529412,4.04968235 0.180388235,5.08484706 0.329929412,6.11174118 C0.619176471,8.09869412 1.09171765,10.0530118 1.58214118,11.9983882 C2.73778824,16.5823059 3.49264706,17.9371176 4.21710588,20.1013294 C5.10250588,22.7476941 5.73710588,25.0567529 6.47430588,27.7650353 C7.60223529,31.9097176 8.42482353,36.5524235 8.57503529,40.8781647 C8.65125882,43.0747882 8.44561176,45.2966706 7.85147059,47.4168471 C7.33891765,49.2459882 6.1712,50.825 5.75387059,52.6472118 C5.59516471,53.3397059 5.43511765,53.9237882 5.82495294,54.5785059 C6.67525882,56.0059647 9.15665882,56.0529059 10.5796471,56.0985059 C13.6943059,56.1982 16.8420471,55.7223059 19.9003765,55.1853882 C28.4235529,53.6893059 36.8085882,51.2340588 44.9770235,48.4064118 C52.3324824,45.8606353 59.8893412,43.0571294 66.5306235,38.9336824 C68.2276588,37.8801882 70.5293412,36.5070471 71.3986471,34.6202353 C72.1119294,33.0720706 71.2797294,32.1719176 70.0883176,31.4827765" id="Fill-9" mask="url(#mask-2)"></path>
                        </g>
                        <path d="M6.95853765,58.7420765 C6.95853765,58.7420765 37.9587141,56.2781118 56.0299494,43.3543118 C56.0299494,43.3543118 55.2777729,41.6769471 54.5358788,39.8276882 C54.5358788,39.8276882 35.9308553,52.5337706 5.86257294,54.7055824 C5.86257294,54.7055824 6.75892588,57.9145706 6.85884353,58.3283235 L6.95853765,58.7420765 Z" id="Fill-12" fill="#D7D7D7"></path>
                        <path d="M7.65315529,62.0159776 C7.65315529,62.0159776 36.4837553,61.6491659 57.4253318,46.3076718 C57.4253318,46.3076718 58.7796965,49.0988835 60.0547082,50.9608835 C61.32972,52.8228835 35.7353788,70.2438718 8.41762588,67.6431071 C8.41762588,67.6431071 7.73541412,62.4943306 7.65315529,62.0159776" id="Fill-14" fill="#D7D7D7"></path>
                        <g id="Group-40" transform="translate(7.600000, 46.270588)">
                            <g id="Group-18" transform="translate(47.611765, 0.000000)">
                                <mask id="mask-4" fill="white">
                                    <use xlink:href="#path-3"></use>
                                </mask>
                                <g id="Clip-17"></g>
                                <path d="M4.84276471,4.69031765 C3.56775294,2.82831765 2.21361176,0.0371058824 2.21361176,0.0371058824 C1.54168235,0.529317647 0.861705882,1.00543529 0.175023529,1.46702353 L3.26576471,6.83195294 C4.49249412,5.78203529 5.06070588,5.00862353 4.84276471,4.69031765" id="Fill-16" mask="url(#mask-4)"></path>
                            </g>
                            <g id="Group-21" transform="translate(41.352941, 3.352941)">
                                <mask id="mask-6" fill="white">
                                    <use xlink:href="#path-5"></use>
                                </mask>
                                <g id="Clip-20"></g>
                                <path d="M0.116682353,1.87004706 L3.42424706,7.61095294 C4.55932941,6.95735294 5.58644706,6.32185882 6.49375294,5.72011765 L3.26375294,0.113776471 C2.22456471,0.7296 1.17397647,1.31435294 0.116682353,1.87004706" id="Fill-19" mask="url(#mask-6)"></path>
                            </g>
                            <g id="Group-24" transform="translate(34.870588, 6.705882)">
                                <mask id="mask-8" fill="white">
                                    <use xlink:href="#path-7"></use>
                                </mask>
                                <g id="Clip-23"></g>
                                <path d="M0.1178,1.54458824 L2.95707059,7.78865882 C4.24348235,7.21128235 5.46507059,6.62541176 6.61177647,6.04132941 L3.2338,0.177929412 C2.19684706,0.659188235 1.15698824,1.11429412 0.1178,1.54458824" id="Fill-22" mask="url(#mask-8)"></path>
                            </g>
                            <g id="Group-27" transform="translate(21.011765, 11.847059)">
                                <mask id="mask-10" fill="white">
                                    <use xlink:href="#path-9"></use>
                                </mask>
                                <g id="Clip-26"></g>
                                <path d="M0.0491764706,0.906188235 L1.44981176,7.86085882 C2.80149412,7.54434118 4.23878824,7.16210588 5.42595294,6.82412941 L3.24497647,0.0735411765 C2.25250588,0.344682353 1.09328235,0.651811765 0.0491764706,0.906188235" id="Fill-25" mask="url(#mask-10)"></path>
                            </g>
                            <g id="Group-30" transform="translate(0.000000, 15.423529)">
                                <mask id="mask-12" fill="white">
                                    <use xlink:href="#path-11"></use>
                                </mask>
                                <g id="Clip-29"></g>
                                <path d="M0.0532,0.321882353 C0.135458824,0.800235294 0.817670588,5.94901176 0.817670588,5.94901176 C1.76498824,6.03931765 2.71007059,6.10302353 3.65224706,6.14661176 L3.03910588,0.173682353 C1.14022353,0.307576471 0.0532,0.321882353 0.0532,0.321882353" id="Fill-28" mask="url(#mask-12)"></path>
                            </g>
                            <g id="Group-33" transform="translate(13.858824, 13.411765)">
                                <mask id="mask-14" fill="white">
                                    <use xlink:href="#path-13"></use>
                                </mask>
                                <g id="Clip-32"></g>
                                <path d="M0.191117647,0.8094 L0.897470588,7.69030588 C2.25854118,7.51841176 3.60217647,7.3074 4.92636471,7.06442353 L3.54070588,0.1672 C2.3864,0.4066 1.26785882,0.619623529 0.191117647,0.8094" id="Fill-31" mask="url(#mask-14)"></path>
                            </g>
                            <g id="Group-36" transform="translate(27.717647, 9.611765)">
                                <mask id="mask-16" fill="white">
                                    <use xlink:href="#path-15"></use>
                                </mask>
                                <g id="Clip-35"></g>
                                <path d="M0.0867294118,1.25556471 L2.25183529,7.95675294 C3.81050588,7.4328 5.24310588,6.90437647 6.64508235,6.34689412 L3.75283529,0.00469411765 C2.52454118,0.452423529 1.26204706,0.8816 0.0867294118,1.25556471" id="Fill-34" mask="url(#mask-16)"></path>
                            </g>
                            <g id="Group-39" transform="translate(6.705882, 14.752941)">
                                <mask id="mask-18" fill="white">
                                    <use xlink:href="#path-17"></use>
                                </mask>
                                <g id="Clip-38"></g>
                                <path d="M0.0634823529,0.507188235 L0.716858824,6.8742 C1.92771765,6.85542353 3.13052941,6.80311765 4.32350588,6.71817647 L3.63995294,0.0576705882 C2.34996471,0.241188235 1.15229412,0.388717647 0.0634823529,0.507188235" id="Fill-37" mask="url(#mask-18)"></path>
                            </g>
                        </g>
                        <path d="M46.1637188,80.6959729 C45.79266,80.8875376 45.2988835,80.7670553 45.0308718,80.4467376 C44.4081188,79.7028318 45.1024012,78.5035965 46.0604482,78.99402 C46.6764953,79.3091965 46.8282718,80.3526318 46.1637188,80.6959729" id="Fill-41" fill="#FFFFFF"></path>
                        <path d="M45.1290235,79.6697941 C45.1263412,79.6177118 45.1444471,79.5616059 45.1893765,79.5079588 C45.2573294,79.4265941 45.3764706,79.3738412 45.4808588,79.3789824 C45.6245882,79.3861353 45.7332235,79.5148882 45.7110941,79.6396176 C45.6967882,79.7209824 45.6357647,79.8054765 45.5479176,79.8533118 C45.4260941,79.9199235 45.2740941,79.8855 45.1989882,79.8144176 C45.1571882,79.7750765 45.1319294,79.7243353 45.1290235,79.6697941" id="Fill-43" fill="#000000"></path>
                        <path d="M36.3164212,83.8441612 C36.7297271,83.7826906 37.0594329,83.3957612 37.0893859,82.9791024 C37.1591271,82.0116671 35.8943976,81.4454671 35.4044212,82.4035141 C35.0894682,83.0195612 35.5765388,83.9545847 36.3164212,83.8441612" id="Fill-45" fill="#FFFFFF"></path>
                        <path d="M36.55524,82.4067106 C36.5268518,82.3626753 36.47924,82.3278047 36.4117341,82.3105929 C36.3086871,82.28444 36.1812753,82.3112635 36.0996871,82.3765341 C35.9872518,82.4666165 35.9742871,82.6347106 36.0654871,82.7227812 C36.1247224,82.7804518 36.2237459,82.8130871 36.3229929,82.8007929 C36.4604635,82.7833576 36.5637341,82.6662282 36.5831812,82.5649694 C36.5939106,82.5084165 36.5849694,82.4525341 36.55524,82.4067106" id="Fill-47" fill="#000000"></path>
                    </g>
                    <line x1="184.94296" y1="1.59872116e-13" x2="184.94296" y2="20.4106941" id="Stroke-66" stroke="#E2E0DE" stroke-width="3"></line>
                    <line x1="204.260573" y1="10.89726" x2="189.828396" y2="25.32966" id="Stroke-67" stroke="#E2E0DE" stroke-width="3"></line>
                    <line x1="214.649236" y1="29.3517588" x2="194.238766" y2="29.3517588" id="Stroke-68" stroke="#E2E0DE" stroke-width="3"></line>
                </g>
                <polygon id="Fill-62" fill="#CCCCCC" points="70.4884353 47.2339553 175.323506 47.2339553 175.323506 43.0409906 70.4884353 43.0409906"></polygon>
                <polygon id="Fill-64" fill="#BDBDBD" points="147.748694 65.3628612 175.323506 65.3628612 175.323506 61.1696729 147.748694 61.1696729"></polygon>
                <polygon id="Fill-65" fill="#FFFFFF" points="97.3814824 56.29852 175.323506 56.29852 175.323506 52.1053318 97.3814824 52.1053318"></polygon>
            </g>
        </g>
    </g>
</svg>