<?xml version="1.0" encoding="UTF-8"?>
<svg width="67px" height="80px" viewBox="0 0 67 80" version="1.1" xmlns="http://www.w3.org/2000/svg" xmlns:xlink="http://www.w3.org/1999/xlink">
    <!-- Generator: Sketch 59 (86127) - https://sketch.com -->
    <title>Group 28 Copy</title>
    <desc>Created with Sketch.</desc>
    <defs>
        <path d="M7.49753385,104.863621 C7.52430388,104.867562 6.80304289,108.958054 6.71278966,109.356895 C6.11925995,111.989565 4.80026253,114.086637 3.49579742,116.3784 C1.41767855,120.029456 -0.127716796,123.752635 0.353378811,128.058705 C0.789730233,131.962781 2.5863814,135.687143 5.31195245,138.430952 C9.37717209,142.52302 15.8627845,143.591458 21.1418336,141.696567 C26.6147742,139.732311 30.5098129,134.666786 31.3549809,128.749584 C31.7878904,125.718072 31.3324176,122.567145 30.1109395,119.778406 C29.0290481,117.307716 27.368924,115.17951 26.1122625,112.809713 C24.8357147,110.402869 24.223446,107.601519 24.3045209,104.863621 L7.49753385,104.863621 Z" id="path-1"></path>
        <filter x="-94.4%" y="-72.9%" width="288.8%" height="256.3%" filterUnits="objectBoundingBox" id="filter-2">
            <feOffset dx="0" dy="2" in="SourceAlpha" result="shadowOffsetOuter1"></feOffset>
            <feGaussianBlur stdDeviation="9.5" in="shadowOffsetOuter1" result="shadowBlurOuter1"></feGaussianBlur>
            <feColorMatrix values="0 0 0 0 0.969599185   0 0 0 0 0.897805462   0 0 0 0 0.283378664  0 0 0 0.5 0" type="matrix" in="shadowBlurOuter1"></feColorMatrix>
        </filter>
        <polygon id="path-3" points="0.129834625 0.0654226381 3.04126615 0.0654226381 3.04126615 93.4024421 0.129834625 93.4024421"></polygon>
    </defs>
    <g id="Snugr" stroke="none" stroke-width="1" fill="none" fill-rule="evenodd">
        <g id="Sign-up--Copy-4" transform="translate(-290.000000, -329.000000)">
            <g id="Group-28-Copy" transform="translate(308.000000, 246.000000)">
                <g id="Group-22-Copy">
                    <g id="Fill-1">
                        <use fill="black" fill-opacity="1" filter="url(#filter-2)" xlink:href="#path-1"></use>
                        <use fill="#E8C339" fill-rule="evenodd" xlink:href="#path-1"></use>
                    </g>
                    <polygon id="Fill-3" fill="#0E0C07" points="25.0919039 101.921258 6.68827597 101.921258 7.17319587 98.5070632 24.3037178 98.5070632"></polygon>
                    <path d="M7.55283307,104.863621 C7.5796031,104.867562 6.85834212,108.958054 6.76808889,109.356895 C6.17455917,111.989565 4.85556176,114.086637 3.55147907,116.3784 C1.47297778,120.029456 -0.0724175711,123.752635 0.408678036,128.058705 C0.845029457,131.962781 2.64206305,135.687143 5.36763411,138.430952 C9.43247132,142.52302 15.9180837,143.591458 21.1971328,141.696567 C26.6700734,139.732311 30.5654946,134.666786 31.4102801,128.749584 C31.8431897,125.718072 31.3877168,122.567145 30.1666212,119.778406 C29.0843473,117.307716 27.4246057,115.17951 26.1675618,112.809713 C24.891014,110.402869 24.2787452,107.601519 24.3598202,104.863621 L7.55283307,104.863621 Z" id="Stroke-5" stroke="#39383A" stroke-width="2"></path>
                    <line x1="14.151568" y1="104.863621" x2="10.4882811" y2="120.630477" id="Stroke-7" stroke="#39383A"></line>
                    <line x1="17.7413519" y1="104.863621" x2="21.5859101" y2="120.630477" id="Stroke-9" stroke="#39383A"></line>
                    <polyline id="Stroke-11" stroke="#39383A" points="11.1474357 117.794287 14.0168 120.769047 16.2524796 118.215199 18.5960041 120.630319 21.007601 118.260128"></polyline>
                    <g id="Group-17" transform="translate(14.470284, 0.328690)">
                        <mask id="mask-4" fill="white">
                            <use xlink:href="#path-3"></use>
                        </mask>
                        <g id="Clip-16"></g>
                        <path d="M0.129834625,93.4024421 L0.129834625,82.6713104 C0.774364455,82.6713104 1.26406471,82.6713104 1.5989354,82.6713104 C1.93380609,82.6713104 2.414583,82.6713104 3.04126615,82.6713104 L3.12944056,93.4024421" id="Fill-15" fill="#39383A" mask="url(#mask-4)"></path>
                    </g>
                    <path d="M23.7839897,97.1393613 C22.4783773,94.7065062 19.4292713,93 15.8765065,93 C12.3512765,93 9.32282171,94.6801006 8,97.0830032 L23.7839897,97.1393613 Z" id="Fill-18" fill="#39383A"></path>
                    <polygon id="Fill-20" fill="#9B9586" points="6.6878553 103.975489 25.2597519 103.975489 25.0919039 101.921376 6.6878553 101.921376"></polygon>
                </g>
                <path d="M6.68827597,104 L5.88460989,108.944311 C6.57247776,108.059845 7.1268486,107.235793 7.54772241,106.472156 C7.96859622,105.708518 8.32256664,104.884466 8.60963367,104 L6.68827597,104 Z" id="Path-4" fill="#39383A"></path>
            </g>
        </g>
    </g>
</svg>